<?xml version="1.0" encoding="UTF-8" standalone="no"?>
<!DOCTYPE svg PUBLIC "-//W3C//DTD SVG 1.1//EN" "http://www.w3.org/Graphics/SVG/1.1/DTD/svg11.dtd">
<svg version="1.1" xmlns="http://www.w3.org/2000/svg" xmlns:xlink="http://www.w3.org/1999/xlink" preserveAspectRatio="xMidYMid meet" viewBox="0 0 640 640" width="640" height="640"><defs><path d="M416.64 315.08C416.64 363.74 381.46 403.19 338.07 403.19C294.67 403.19 259.5 363.74 259.5 315.08C259.5 266.42 294.67 226.97 338.07 152.77C381.46 226.97 416.64 266.42 416.64 315.08Z" id="b2tLJkZt3f"></path></defs><g><g><g><use xlink:href="#b2tLJkZt3f" opacity="1" fill="#7d0017" fill-opacity="1"></use><g><use xlink:href="#b2tLJkZt3f" opacity="1" fill-opacity="0" stroke="#000000" stroke-width="9" stroke-opacity="1"></use></g><g><filter id="shadow15064526" x="220.5" y="113.77" width="240.14" height="341.42" filterUnits="userSpaceOnUse" primitiveUnits="userSpaceOnUse"><feFlood></feFlood><feComposite in2="SourceAlpha" operator="out"></feComposite><feGaussianBlur stdDeviation="3.16"></feGaussianBlur><feOffset dx="5" dy="13" result="afterOffset"></feOffset><feFlood flood-color="#ffffff" flood-opacity="0.8"></feFlood><feComposite in2="afterOffset" operator="in"></feComposite><feMorphology operator="dilate" radius="1"></feMorphology><feComposite in2="SourceAlpha" operator="in"></feComposite></filter><path d="M416.64 315.08C416.64 363.74 381.46 403.19 338.07 403.19C294.67 403.19 259.5 363.74 259.5 315.08C259.5 266.42 294.67 226.97 338.07 152.77C381.46 226.97 416.64 266.42 416.64 315.08Z" id="aezrn94Bk" fill="white" fill-opacity="1" filter="url(#shadow15064526)"></path></g><g><filter id="shadow11978958" x="220.5" y="113.77" width="236.14" height="329.42" filterUnits="userSpaceOnUse" primitiveUnits="userSpaceOnUse"><feFlood></feFlood><feComposite in2="SourceAlpha" operator="out"></feComposite><feGaussianBlur stdDeviation="4"></feGaussianBlur><feOffset dx="1" dy="1" result="afterOffset"></feOffset><feFlood flood-color="#ffffff" flood-opacity="0.8"></feFlood><feComposite in2="afterOffset" operator="in"></feComposite><feMorphology operator="dilate" radius="1"></feMorphology><feComposite in2="SourceAlpha" operator="in"></feComposite></filter><path d="M416.64 315.08C416.64 363.74 381.46 403.19 338.07 403.19C294.67 403.19 259.5 363.74 259.5 315.08C259.5 266.42 294.67 226.97 338.07 152.77C381.46 226.97 416.64 266.42 416.64 315.08Z" id="c3cdFeDQ29" fill="white" fill-opacity="1" filter="url(#shadow11978958)"></path></g></g></g></g></svg>